<svg xmlns="http://www.w3.org/2000/svg" width="230" height="230" fill="#fff" stroke="#fff" stroke-width="0" viewBox="-6.96 -6.96 37.92 37.92"><path fill="#000" stroke="none" d="M14.542-4.724a4.91 4.91 0 0 0-5.084 0L-1.99 2.214A4.9 4.9 0 0 0-4.353 6.41v11.182a4.9 4.9 0 0 0 2.364 4.195l11.447 6.938a4.91 4.91 0 0 0 5.084 0l11.447-6.938a4.9 4.9 0 0 0 2.364-4.195V6.409a4.9 4.9 0 0 0-2.364-4.195z"/><g stroke="none"><path fill="none" d="M0 0h24v24H0z"/><path fill-rule="evenodd" d="M20 6H4a2 2 0 0 0-2 2v8a2 2 0 0 0 2 2h16a2 2 0 0 0 2-2V8a2 2 0 0 0-2-2M9.29 14.8 9 13.73H7.16l-.29 1.07h-1.7L7 9.07h2.09L11 14.8Zm6.34-3.14a1.7 1.7 0 0 1-.36.64 1.8 1.8 0 0 1-.67.44 2.8 2.8 0 0 1-1 .17h-.44v1.89H11.6V9.09h2a2.43 2.43 0 0 1 1.62.47 1.67 1.67 0 0 1 .55 1.35 2.4 2.4 0 0 1-.14.75m2.58 3.14h-1.55V9.09h1.55Zm-9.76-3.27.24.93H7.48l.24-.93c0-.13.08-.28.12-.47s.09-.38.13-.57a5 5 0 0 0 .1-.48c0 .13.07.29.11.5l.15.58Zm5.59-1a.57.57 0 0 1 .16.43.75.75 0 0 1-.11.42.6.6 0 0 1-.27.22.9.9 0 0 1-.37.07h-.31v-1.33h.4a.63.63 0 0 1 .46.17Z"/></g></svg>