<svg xmlns="http://www.w3.org/2000/svg" xmlns:xlink="http://www.w3.org/1999/xlink" width="512" height="512"><defs><linearGradient id="c"><stop offset="0" stop-color="#012253"/><stop offset="1" stop-color="#014885"/></linearGradient><linearGradient id="b"><stop offset="0" stop-color="#01337b"/><stop offset="1" stop-color="#025eac"/></linearGradient><linearGradient xlink:href="#a" id="g" x1="-111" x2="-110.5" y1="967.862" y2="617.362" gradientTransform="translate(188.762 204.313)scale(.62893)" gradientUnits="userSpaceOnUse"/><linearGradient id="a"><stop offset="0" stop-color="#0143a3"/><stop offset="1" stop-color="#0273d4"/></linearGradient><linearGradient xlink:href="#b" id="f" x1="-111" x2="-110.5" y1="967.862" y2="617.362" gradientTransform="translate(402.832 202.494)scale(.62893)" gradientUnits="userSpaceOnUse"/><linearGradient xlink:href="#c" id="e" x1="-111" x2="-110.5" y1="967.862" y2="617.362" gradientTransform="translate(404.651 431.725)scale(.62893)" gradientUnits="userSpaceOnUse"/><filter id="d" color-interpolation-filters="sRGB"><feFlood flood-color="#000" flood-opacity=".235" result="flood"/><feComposite in="flood" in2="SourceGraphic" operator="in" result="composite1"/><feGaussianBlur in="composite1" result="blur" stdDeviation="3"/><feOffset dx="-3" dy="3" result="offset"/><feComposite in="SourceGraphic" in2="offset" result="composite2"/></filter></defs><g fill-rule="evenodd" filter="url(#d)" transform="matrix(1.42666 -.88642 1.5564 .92591 -1654.818 -267.206)"><path fill="url(#e)" d="m334.713 820.424 97.629 38.297-9.44 128.643-87.65 53.399-88.189-53.939-9.17-127.834z"/><path fill-opacity=".098" d="m334.446 820.403.607 219.83 87.932-53.365 8.793-128.26z"/></g><g fill-rule="evenodd" filter="url(#d)" transform="matrix(1.42666 -.88642 1.5564 .92591 -1295.447 -96.233)"><path fill="url(#f)" d="m332.894 591.194 97.628 38.296-9.439 128.643-87.65 53.4-88.19-53.94-9.169-127.833z"/><path fill-opacity=".098" d="m332.627 591.172.606 219.831 87.933-53.366 8.793-128.26z"/></g><g filter="url(#d)" transform="matrix(1.42666 -.88642 1.5564 .92591 -992.166 -330.767)"><path fill="url(#g)" fill-rule="evenodd" d="m118.824 593.013 97.628 38.296-9.439 128.643-87.65 53.4-88.189-53.939-9.17-127.834z"/><path fill-opacity=".098" fill-rule="evenodd" d="m118.557 592.991.606 219.831 87.933-53.366 8.793-128.26z"/><path fill="#fff" d="M102.059 701.248v36.513h21.628q10.88 0 16.087-4.472 5.273-4.54 5.273-13.818 0-9.345-5.273-13.75-5.207-4.473-16.087-4.473zm0-40.985V690.3h19.959q9.879 0 14.685-3.671 4.873-3.738 4.873-11.348 0-7.543-4.873-11.281-4.806-3.738-14.685-3.738h-19.959zm-13.484-11.081h34.444q15.42 0 23.764 6.408t8.344 18.223q0 9.145-4.273 14.552t-12.549 6.742q9.946 2.136 15.42 8.945 5.54 6.742 5.54 16.888 0 13.35-9.078 20.626t-25.833 7.276H88.575z"/></g></svg>